<?xml version="1.0" encoding="UTF-8"?>
<svg id="Capa_2" data-name="Capa 2" xmlns="http://www.w3.org/2000/svg" viewBox="0 0 123.99 83.6">
  <defs>
    <style>
      .cls-1 {
        fill: #e4d779;
      }
    </style>
  </defs>
  <g id="Capa_4" data-name="Capa 4">
    <g>
      <path class="cls-1" d="m43.33,70.06c-.1,0-.2,0-.31-.02l-9.38-1.37c-1.04-.15-1.8-1.03-1.74-2.04,1.12-19.15,19.18-21.33,19.36-21.35l.47,3.88-.23-1.94.24,1.94c-.58.07-13.74,1.75-15.57,15.93l5.91.86c1.96-3.62,6.82-8.12,15.27-6.02l-1.04,3.78c-8.22-2.05-10.76,4.29-11.02,5.02-.29.8-1.08,1.33-1.95,1.33Z"/>
      <path class="cls-1" d="m122.1,60.27s-.05,0-.08,0c-.13,0-3.35-.15-9.24-1.41-1.02-.22-1.67-1.21-1.45-2.21.21-.94,1.09-1.56,2.04-1.46-2.27-2.62-3.17-5.23-3.23-5.43-.32-.98.22-2.03,1.21-2.35.99-.32,2.05.21,2.38,1.18.1.28,2.3,6.53,8.8,8,.95.22,1.58,1.11,1.45,2.06-.13.93-.93,1.61-1.87,1.61Z"/>
      <path class="cls-1" d="m101.56,83.6c-.96,0-1.8-.64-2-1.53-1.9-8.2-7.61-14.73-15.29-14.73-.1,0-.21,0-.31,0-10.63.18-13.94,10.73-14.87,14.54-.21.86-1.01,1.48-1.94,1.51-1.93.05-3.88.05-5.77.04-1.17,0-2.34,0-3.51,0h-.02c-.59,0-1.14-.24-1.53-.65-.39-.42-.58-.98-.5-1.54.67-5.09.43-12.12-.76-18.57-.02-.1-.06-.29-.1-.44-.99-3.7-3.17-10.62-6.59-15.39-4.11-5.73-8.12-7.85-14.05-9.29-.92,4.48-2.61,10.16-5.65,14.95-5.08,8-11.85,13.85-21.32,18.4-.96.46-2.14.14-2.69-.74-.58-.93-1.19-1.85-1.77-2.73-.86-1.31-1.75-2.66-2.63-4.14-.28-.47-.34-1.03-.17-1.55s.56-.94,1.07-1.17c13.6-6.15,19.47-13.5,20.24-25.36C22.73,15.04,30.43,3.75,44.95.7c9.38-1.97,17.51.25,22.49,6.11,3.63-.18,7.35-.13,10.78,3.08,2.97,2.78,4.46,6.34,4.28,10.17,7.27,2.24,13.65,4.42,20.5,10.88,12.38,11.65,16.19,33.19,9.47,51.13-.27.72-.96,1.23-1.77,1.29-2.43.19-4.99.21-7.45.23-.56,0-1.11.01-1.66.02h-.03Zm-17.29-20.16c9.1,0,16.2,7.18,18.89,16.24.02,0,.04,0,.05,0,1.94-.02,3.93-.04,5.83-.13,5.59-16.21,2.07-35.48-8.93-45.84-6.03-5.68-11.58-7.67-18.35-9.77-1.64,5-5.81,9.59-11.13,12.08-5.25,2.46-10.75,2.48-15.5.05-1-.51-1.37-1.69-.83-2.64.54-.95,1.78-1.3,2.78-.79,3.54,1.81,7.71,1.77,11.74-.12,4.86-2.28,8.66-6.86,9.44-11.4.39-2.25.19-5.54-2.92-8.44-2.42-2.26-4.99-2.12-8.56-1.92h-.2c-.7.05-1.37-.26-1.78-.8-5.34-7.08-14.18-6.45-18.97-5.44-7.97,1.67-18.74,6.7-20.32,30.95-1.02,15.68-10.68,22.93-20.57,27.71.47.73.94,1.45,1.43,2.19.27.4.53.81.81,1.23,7.88-4.08,13.63-9.23,17.98-16.1,2.53-3.98,4.43-9.38,5.5-15.62.09-.53.41-1,.87-1.3s1.04-.41,1.59-.29c7.8,1.61,13.35,3.99,18.64,11.37,3.78,5.27,6.12,12.68,7.17,16.62.07.25.14.57.17.73,1.09,5.93,1.43,12.7,1.03,17.53.42,0,.84,0,1.27,0,1.35,0,2.73,0,4.1,0,2.72-8.92,9.5-15.93,18.39-16.09.13,0,.26,0,.38,0Z"/>
    </g>
  </g>
</svg>