<?xml version="1.0" encoding="UTF-8"?>
<svg id="Capa_2" data-name="Capa 2" xmlns="http://www.w3.org/2000/svg" viewBox="0 0 562.15 173.33">
  <defs>
    <style>
      .cls-1 {
        fill: #341e52;
      }
    </style>
  </defs>
  <g id="Capa_4" data-name="Capa 4">
    <g>
      <g>
        <path class="cls-1" d="m71.07,133.02c-.17,0-.34-.01-.5-.04l-15.39-2.24c-1.71-.25-2.95-1.7-2.85-3.34,1.84-31.41,31.45-34.98,31.75-35.02l.76,6.36-.38-3.18.39,3.18c-.95.11-22.53,2.86-25.53,26.12l9.69,1.41c3.22-5.94,11.19-13.32,25.04-9.87l-1.71,6.19c-13.49-3.36-17.65,7.04-18.08,8.23-.47,1.31-1.77,2.18-3.2,2.18Z"/>
        <path class="cls-1" d="m200.26,116.95s-.09,0-.13,0c-.22,0-5.49-.24-15.16-2.31-1.67-.36-2.73-1.98-2.37-3.63.34-1.54,1.79-2.55,3.34-2.39-3.72-4.29-5.2-8.59-5.3-8.9-.53-1.6.35-3.33,1.98-3.85,1.62-.52,3.37.35,3.9,1.94.16.46,3.77,10.7,14.43,13.11,1.56.35,2.59,1.82,2.38,3.38-.21,1.52-1.52,2.65-3.07,2.65Z"/>
        <path class="cls-1" d="m166.57,155.22c-1.58,0-2.95-1.04-3.29-2.51-3.12-13.45-12.47-24.15-25.08-24.15-.17,0-.34,0-.51,0-17.43.29-22.86,17.6-24.39,23.85-.35,1.42-1.65,2.43-3.18,2.48-3.17.09-6.37.07-9.46.06-1.92,0-3.83-.01-5.75,0h-.03c-.96,0-1.87-.39-2.51-1.07-.65-.69-.95-1.61-.83-2.53,1.1-8.34.7-19.88-1.25-30.45-.03-.16-.1-.48-.16-.72-1.63-6.07-5.19-17.41-10.8-25.24-6.74-9.4-13.31-12.88-23.05-15.24-1.52,7.35-4.28,16.66-9.27,24.52-8.33,13.12-19.44,22.71-34.97,30.18-1.58.76-3.51.23-4.41-1.22-.96-1.53-1.94-3.03-2.9-4.47-1.41-2.14-2.87-4.36-4.31-6.78-.46-.77-.56-1.69-.27-2.54.28-.85.92-1.54,1.76-1.92,22.31-10.09,31.93-22.14,33.2-41.59,2.16-33.1,14.78-51.62,38.59-56.62,15.39-3.23,28.71.42,36.89,10.02,5.96-.29,12.05-.21,17.68,5.05,4.88,4.56,7.31,10.4,7.01,16.68,11.92,3.68,22.38,7.25,33.63,17.84,20.31,19.11,26.55,54.44,15.53,83.85-.44,1.19-1.58,2.02-2.9,2.12-3.99.3-8.18.34-12.23.38-.91,0-1.82.02-2.72.03h-.04Zm-28.36-33.06c14.93,0,26.57,11.77,30.98,26.64.03,0,.06,0,.09,0,3.18-.03,6.44-.06,9.56-.22,9.17-26.58,3.4-58.19-14.64-75.17-9.89-9.31-19-12.58-30.1-16.03-2.68,8.2-9.52,15.72-18.25,19.81-8.61,4.03-17.64,4.06-25.41.08-1.64-.84-2.25-2.78-1.37-4.34.88-1.56,2.92-2.14,4.56-1.3,5.81,2.97,12.64,2.91,19.25-.19,7.98-3.74,14.2-11.25,15.48-18.7.63-3.69.32-9.08-4.78-13.85-3.97-3.71-8.19-3.47-14.04-3.15l-.32.02c-1.15.06-2.25-.44-2.93-1.33-8.76-11.61-23.26-10.57-31.12-8.92-13.06,2.74-30.73,10.99-33.33,50.77-1.68,25.71-17.52,37.6-33.74,45.44.76,1.2,1.54,2.38,2.34,3.59.44.66.88,1.33,1.32,2.01,12.93-6.69,22.35-15.14,29.5-26.4,4.14-6.53,7.27-15.39,9.03-25.62.15-.87.67-1.64,1.43-2.13s1.71-.67,2.61-.48c12.79,2.64,21.9,6.54,30.58,18.65,6.19,8.64,10.03,20.79,11.76,27.26.11.41.22.93.27,1.2,1.8,9.73,2.34,20.83,1.68,28.75.69,0,1.38,0,2.08,0,2.21,0,4.47.02,6.72-.01,4.45-14.62,15.57-26.13,30.16-26.38.21,0,.42,0,.63,0Z"/>
      </g>
      <g>
        <path class="cls-1" d="m235.22,8.42c0-5.64,2.94-7.42,7.42-7.42h19.4c10.66,0,19.24,5.25,19.24,17.62,0,10.12-7.03,17.62-19.32,17.62h-14.06v15.07c0,3.79-2.47,6.34-6.34,6.34s-6.34-2.55-6.34-6.34V8.42Zm12.67,18.08h11.82c5.1,0,8.89-3.09,8.89-7.88,0-5.56-3.94-7.88-10.2-7.88h-10.51v15.76Z"/>
        <path class="cls-1" d="m289.61,8.42c0-5.64,2.94-7.42,7.42-7.42h21.1c15.07,0,19.09,8.27,19.09,15.46,0,6.03-3.55,11.98-9.58,13.37v.15c6.49.93,7.65,5.64,7.65,11.28,0,6.41,1.7,8.81,1.7,11.44,0,2.94-3.01,4.95-5.95,4.95-6.95,0-7.5-6.72-7.5-8.96,0-9.74-1.78-13.68-8.73-13.68h-12.52v16.31c0,3.79-2.47,6.34-6.34,6.34s-6.34-2.55-6.34-6.34V8.42Zm12.67,17.31h12.67c4.79,0,9.58-1.24,9.58-7.5s-3.63-7.5-9.2-7.5h-13.06v14.99Z"/>
        <path class="cls-1" d="m359.31,3.86c1.08-2.86,3.09-3.86,6.18-3.86h3.01c2.86,0,5.41.7,6.8,4.64l15.3,42.58c.46,1.24,1.24,3.48,1.24,4.87,0,3.09-2.7,5.56-5.95,5.56-2.78,0-4.79-1-5.72-3.48l-3.25-9.27h-20.4l-3.32,9.27c-.85,2.47-2.63,3.48-5.64,3.48-3.48,0-5.87-2.16-5.87-5.56,0-1.39.77-3.63,1.24-4.87l16.38-43.35Zm7.65,9.89h-.15l-7.5,22.33h14.84l-7.19-22.33Z"/>
        <path class="cls-1" d="m398.41,8.42c0-5.64,2.94-7.42,7.42-7.42h15.46c13.83,0,26.51,6.03,26.51,27.82,0,17.62-9.81,27.82-26.74,27.82h-15.22c-4.48,0-7.42-1.78-7.42-7.42V8.42Zm12.67,38.02h10.66c10.12,0,13.37-9.04,13.37-17.62,0-10.97-4.17-17.62-13.45-17.62h-10.59v35.24Z"/>
        <path class="cls-1" d="m456.83,7.42c0-5.26,2.55-7.42,7.96-7.42,2.63,0,4.95,1,6.34,3.32l22.18,35.78h.15V6.1c0-4.1,2.32-6.1,6.1-6.1s6.1,2.01,6.1,6.1v43.66c0,5.02-2.16,7.88-7.5,7.88-4.02,0-5.33-.85-6.95-3.4l-22.02-34.77h-.15v32.07c0,4.1-2.32,6.1-6.1,6.1s-6.1-2.01-6.1-6.1V7.42Z"/>
        <path class="cls-1" d="m529.62,3.86c1.08-2.86,3.09-3.86,6.18-3.86h3.01c2.86,0,5.41.7,6.8,4.64l15.3,42.58c.46,1.24,1.24,3.48,1.24,4.87,0,3.09-2.7,5.56-5.95,5.56-2.78,0-4.79-1-5.72-3.48l-3.25-9.27h-20.4l-3.32,9.27c-.85,2.47-2.63,3.48-5.64,3.48-3.48,0-5.87-2.16-5.87-5.56,0-1.39.77-3.63,1.24-4.87l16.38-43.35Zm7.65,9.89h-.15l-7.5,22.33h14.84l-7.19-22.33Z"/>
        <path class="cls-1" d="m241.88,118.04c2.01.49,3.75.81,5.2.96,1.41.02,2.9-.14,4.47-.46s2.93-.9,4.07-1.71c1.14-.81,1.71-1.9,1.71-3.25s-.42-2.46-1.27-3.28c-.85-.81-1.91-1.43-3.2-1.85-1.29-.42-2.99-.84-5.12-1.27-2.21-.44-4.15-1.03-5.82-1.76-1.67-.73-3.05-1.78-4.13-3.15-1.08-1.37-1.62-3.13-1.62-5.27,0-.2.02-.55.05-1.03.12-1.85.72-3.46,1.8-4.83,1.08-1.37,2.61-2.43,4.6-3.17,1.99-.75,4.38-1.12,7.17-1.12,1.42,0,3.07.19,4.93.57,1.87.38,3.87.99,6.02,1.85l-.49,4.24c-4.32-1.51-7.89-2.26-10.72-2.26-1.73,0-3.19.23-4.37.68-1.18.45-2.07,1.07-2.65,1.85-.58.78-.87,1.67-.87,2.66,0,1.18.3,2.12.9,2.8.6.69,1.4,1.21,2.39,1.58.99.37,2.48.8,4.45,1.3l2.49.64.98.26c2.02.53,3.7,1.1,5.05,1.71,1.35.61,2.52,1.58,3.53,2.93,1.01,1.35,1.52,3.16,1.52,5.44,0,2.04-.56,3.86-1.68,5.46-1.12,1.6-2.77,2.86-4.95,3.77-2.18.91-4.8,1.36-7.87,1.36-2.18,0-4.3-.27-6.36-.81-2.07-.54-4.27-1.26-6.62-2.15l.57-4.47c1.87.7,3.81,1.3,5.82,1.79Z"/>
        <path class="cls-1" d="m307.28,92.99h-17.48v11.03h14.6l-.46,4.4h-14.14v11.15h18.3v4.4h-23.75v-30.97l-.39-4.4h23.78l-.46,4.4Z"/>
        <path class="cls-1" d="m358.91,112.5c-.14,1.83-.65,3.59-1.53,5.28-.88,1.69-2.4,3.12-4.55,4.31-2.15,1.18-5.03,1.77-8.65,1.77s-6.73-.7-8.94-2.11c-2.21-1.4-3.79-3.46-4.73-6.17-.94-2.71-1.41-6.15-1.41-10.33,0-3.36.36-6.34,1.09-8.96.73-2.61,2.2-4.79,4.42-6.54,2.22-1.75,5.41-2.62,9.57-2.62,4.87,0,8.4,1.08,10.62,3.25,2.21,2.17,3.57,5.07,4.09,8.7h-5.58c-.58-2.72-1.63-4.65-3.14-5.77-1.51-1.12-3.5-1.68-5.99-1.68-1.99,0-3.68.39-5.09,1.17-1.41.78-2.51,2.17-3.32,4.16-.81,2-1.21,4.75-1.21,8.26s.37,6.26,1.11,8.34c.74,2.08,1.81,3.57,3.22,4.47,1.41.9,3.17,1.35,5.28,1.35,2.71,0,4.94-.66,6.71-1.98,1.77-1.32,2.64-3.79,2.62-7.4v-.08h-6.17v-4.42h11.67c0,3.58-.03,5.91-.1,6.99Z"/>
        <path class="cls-1" d="m385.97,87.85v19.07c0,4.15.73,7.26,2.18,9.34,1.46,2.08,3.76,3.12,6.91,3.12s5.5-1.02,6.94-3.06,2.16-5.17,2.16-9.41v-19.07h5.5v19.3c0,5.81-1.24,10.05-3.71,12.71-2.48,2.66-6.1,4-10.86,4s-8.3-1.29-10.81-3.88c-2.51-2.59-3.77-6.91-3.77-12.95v-14.78l-.41-4.4h5.86Z"/>
        <path class="cls-1" d="m431.02,92.66l-.36-4.4h12.7c4.35,0,7.7.81,10.04,2.42,2.34,1.61,3.51,4.35,3.51,8.22,0,3.22-.8,5.72-2.4,7.49-1.6,1.77-3.89,2.91-6.88,3.4,1.2,2.42,2.21,4.31,3.05,5.67.83,1.36,1.71,2.43,2.63,3.21.93.78,1.96,1.17,3.11,1.17.39,0,.86-.07,1.39-.2.53-.14.97-.3,1.31-.49l1.49,2.96c-.86.65-1.77,1.18-2.74,1.58-.97.4-1.9.6-2.79.6-1.94,0-3.55-.45-4.83-1.35-1.29-.9-2.36-2.08-3.23-3.55-.87-1.46-1.95-3.62-3.25-6.46l-1.31-2.83h-5.99v13.52h-5.45v-30.97Zm10.82,13.06c2.16,0,3.92-.15,5.27-.45,1.35-.3,2.42-.9,3.19-1.81.77-.91,1.16-2.25,1.16-4.04s-.39-3.22-1.16-4.2c-.77-.98-1.85-1.66-3.22-2.02-1.38-.36-3.12-.54-5.23-.54h-5.37v13.06h5.37Z"/>
        <path class="cls-1" d="m502.51,89.01c2.21,1.4,3.79,3.47,4.73,6.18.94,2.72,1.41,6.16,1.41,10.32,0,3.38-.36,6.37-1.09,8.97-.73,2.6-2.2,4.78-4.42,6.53-2.22,1.75-5.42,2.62-9.6,2.62-3.74,0-6.71-.7-8.92-2.11s-3.79-3.47-4.73-6.18c-.94-2.72-1.41-6.16-1.41-10.32,0-3.36.36-6.34,1.09-8.96.73-2.61,2.2-4.79,4.42-6.54,2.22-1.75,5.41-2.62,9.57-2.62,3.75,0,6.73.7,8.94,2.11Zm-17.39,24.34c.73,2.07,1.79,3.56,3.19,4.46,1.4.9,3.15,1.35,5.26,1.35,3,0,5.34-1.04,7.02-3.11,1.68-2.07,2.52-5.58,2.52-10.51,0-3.48-.36-6.26-1.09-8.33-.73-2.07-1.79-3.56-3.19-4.46-1.4-.9-3.15-1.35-5.26-1.35-3,0-5.34,1.03-7.02,3.1-1.68,2.07-2.52,5.57-2.52,10.5,0,3.5.36,6.28,1.09,8.35Z"/>
        <path class="cls-1" d="m536.03,118.04c2.01.49,3.75.81,5.2.96,1.41.02,2.9-.14,4.47-.46,1.58-.33,2.93-.9,4.07-1.71,1.14-.81,1.71-1.9,1.71-3.25s-.42-2.46-1.27-3.28c-.85-.81-1.91-1.43-3.2-1.85-1.29-.42-2.99-.84-5.12-1.27-2.21-.44-4.15-1.03-5.82-1.76-1.67-.73-3.05-1.78-4.13-3.15-1.08-1.37-1.62-3.13-1.62-5.27,0-.2.02-.55.05-1.03.12-1.85.72-3.46,1.8-4.83,1.08-1.37,2.61-2.43,4.6-3.17,1.99-.75,4.38-1.12,7.17-1.12,1.42,0,3.07.19,4.93.57,1.87.38,3.87.99,6.02,1.85l-.49,4.24c-4.32-1.51-7.89-2.26-10.72-2.26-1.73,0-3.19.23-4.37.68-1.18.45-2.07,1.07-2.65,1.85-.58.78-.87,1.67-.87,2.66,0,1.18.3,2.12.9,2.8.6.69,1.4,1.21,2.39,1.58.99.37,2.48.8,4.45,1.3l2.49.64.98.26c2.02.53,3.7,1.1,5.05,1.71s2.52,1.58,3.53,2.93c1.01,1.35,1.52,3.16,1.52,5.44,0,2.04-.56,3.86-1.68,5.46-1.12,1.6-2.77,2.86-4.95,3.77-2.18.91-4.8,1.36-7.87,1.36-2.18,0-4.3-.27-6.36-.81-2.07-.54-4.27-1.26-6.62-2.15l.57-4.47c1.87.7,3.81,1.3,5.82,1.79Z"/>
        <g>
          <path class="cls-1" d="m235.92,147.26h7.01c3.99,0,6.5,2.47,6.5,6.06s-2.5,6.18-6.9,6.18h-4.8v8.25h-1.81v-20.49Zm6.15,10.69c3.42,0,5.55-1.52,5.55-4.63,0-2.76-2.01-4.51-4.89-4.51h-5v9.14h4.34Z"/>
          <path class="cls-1" d="m252.79,153.44h1.64v3.05h.06c1.26-2.56,3.39-3.25,5.32-3.25.34,0,.72.03,1.01.09v1.58c-.49-.09-.98-.09-1.32-.09-2.76,0-4.91,1.72-5,4.97v7.96h-1.7v-14.31Z"/>
          <path class="cls-1" d="m262.68,162.64v-3.85c0-3.74,2.53-5.66,5.8-5.66,3.53,0,5.81,2.01,5.81,5.63v3.71c0,3.71-2.44,5.66-5.75,5.66-3.51,0-5.86-1.87-5.86-5.49Zm9.91-.14v-3.88c0-2.33-1.29-4.05-4.11-4.05s-4.11,1.61-4.11,4.17v3.85c0,2.44,1.35,4.11,4.17,4.11s4.05-1.47,4.05-4.2Z"/>
          <path class="cls-1" d="m279.03,164.91v-10.06h-2.67v-1.38h2.67v-4.51h1.7v4.51h4.25v1.38h-4.25v9.6c0,1.55.78,2.04,2.24,2.04.75,0,1.49-.14,2.18-.32v1.47c-.92.29-2.07.37-2.67.37-1.78,0-3.45-.69-3.45-3.1Z"/>
          <path class="cls-1" d="m287.34,162.35v-3.1c0-3.94,2.56-6.12,5.98-6.12,3.19,0,5.52,1.95,5.52,5.63v2.1h-9.74v1.7c0,2.53,1.61,4.14,4.37,4.14,1.84,0,3.05-.89,3.82-1.84l1.26.8c-1.32,1.9-3.31,2.47-5.2,2.47-3.51,0-6.01-1.84-6.01-5.78Zm9.83-2.7v-.98c0-2.24-1.24-4.14-3.99-4.14-2.62,0-4.08,2.04-4.08,4.34v.78h8.08Z"/>
          <path class="cls-1" d="m301.65,162.38v-3.33c0-3.71,2.27-5.92,5.72-5.92s5.46,1.9,5.46,4.74v.43h-1.64v-.57c0-1.47-1.09-3.19-3.79-3.19s-3.99,1.9-3.99,4.4v3.48c0,2.5,1.18,4.28,4.02,4.28s3.76-1.7,3.76-3.19v-.49h1.64v.37c0,2.85-2.04,4.74-5.43,4.74-3.56,0-5.75-2.07-5.75-5.75Z"/>
          <path class="cls-1" d="m315.36,162.38v-3.33c0-3.71,2.27-5.92,5.72-5.92s5.46,1.9,5.46,4.74v.43h-1.64v-.57c0-1.47-1.09-3.19-3.79-3.19s-3.99,1.9-3.99,4.4v3.48c0,2.5,1.18,4.28,4.02,4.28s3.76-1.7,3.76-3.19v-.49h1.64v.37c0,2.85-2.04,4.74-5.43,4.74-3.56,0-5.75-2.07-5.75-5.75Z"/>
          <path class="cls-1" d="m329.79,147.26h1.67v2.93h-1.67v-2.93Zm0,6.18h1.67v14.31h-1.67v-14.31Z"/>
          <path class="cls-1" d="m335.08,162.64v-3.85c0-3.74,2.53-5.66,5.8-5.66,3.53,0,5.81,2.01,5.81,5.63v3.71c0,3.71-2.44,5.66-5.75,5.66-3.51,0-5.86-1.87-5.86-5.49Zm9.91-.14v-3.88c0-2.33-1.29-4.05-4.11-4.05s-4.11,1.61-4.11,4.17v3.85c0,2.44,1.35,4.11,4.17,4.11s4.05-1.47,4.05-4.2Zm-2.27-15.81h1.98l-3.42,4.48h-1.41l2.85-4.48Z"/>
          <path class="cls-1" d="m350.31,153.44h1.61v2.73h.06c1.01-2.04,2.93-3.08,4.94-3.08,2.99,0,4.45,2.01,4.45,4.51v10.14h-1.7v-9.37c0-2.67-1.32-3.79-3.28-3.79-2.27,0-4.43,1.78-4.43,4.6v8.56h-1.67v-14.31Z"/>
          <path class="cls-1" d="m381.43,165.11h-.06c-1.09,2.21-3.08,3.02-4.63,3.02-3.05,0-5.06-1.9-5.06-4.89v-4.71c0-3.85,2.62-5.43,5.32-5.43,1.84,0,3.76,1.06,4.37,2.93h.06v-2.59h1.67v19.89h-1.67v-8.22Zm0-3.25v-2.82c0-2.76-1.95-4.51-4.22-4.51-1.84,0-3.82,1.18-3.82,3.76v4.83c0,1.98,1.44,3.53,3.85,3.53,2.01,0,4.2-1.81,4.2-4.8Z"/>
          <path class="cls-1" d="m387.27,163.59v-10.14h1.7v9.37c0,2.67,1.32,3.79,3.31,3.79,2.24,0,4.4-1.78,4.4-4.6v-8.56h1.67v14.31h-1.61v-2.73h-.06c-1.01,2.07-2.93,3.08-4.94,3.08-2.99,0-4.45-2.01-4.45-4.51Z"/>
          <path class="cls-1" d="m401.87,162.35v-3.1c0-3.94,2.56-6.12,5.98-6.12,3.19,0,5.52,1.95,5.52,5.63v2.1h-9.74v1.7c0,2.53,1.61,4.14,4.37,4.14,1.84,0,3.05-.89,3.82-1.84l1.26.8c-1.32,1.9-3.31,2.47-5.2,2.47-3.51,0-6.01-1.84-6.01-5.78Zm9.83-2.7v-.98c0-2.24-1.24-4.14-3.99-4.14-2.62,0-4.08,2.04-4.08,4.34v.78h8.08Z"/>
          <path class="cls-1" d="m424.86,164.91v-10.06h-2.67v-1.38h2.67v-4.51h1.7v4.51h4.25v1.38h-4.25v9.6c0,1.55.78,2.04,2.24,2.04.75,0,1.49-.14,2.18-.32v1.47c-.92.29-2.07.37-2.67.37-1.78,0-3.45-.69-3.45-3.1Z"/>
          <path class="cls-1" d="m433.8,153.44h1.64v3.05h.06c1.26-2.56,3.39-3.25,5.32-3.25.34,0,.72.03,1.01.09v1.58c-.49-.09-.98-.09-1.32-.09-2.76,0-4.91,1.72-5,4.97v7.96h-1.7v-14.31Z"/>
          <path class="cls-1" d="m443.17,163.99c0-3.22,2.96-4.28,5.32-4.28h4.2v-2.21c0-2.24-1.49-3.02-3.65-3.02-1.78,0-3.68.63-3.68,2.5v.46h-1.55v-.43c0-2.85,2.64-3.91,5.32-3.91s5.26,1.01,5.26,4.11v6.95c0,.83.12,2.96.2,3.59h-1.67c-.06-.49-.12-1.84-.12-2.27h-.06c-1.18,2.21-3.1,2.59-4.86,2.59-2.59,0-4.71-1.44-4.71-4.08Zm9.51-1.41v-1.61h-3.85c-1.95,0-3.97.49-3.97,2.93,0,1.93,1.67,2.85,3.48,2.85,2.87,0,4.34-1.7,4.34-4.17Z"/>
          <path class="cls-1" d="m458.43,153.44h1.61v2.73h.06c1.01-2.04,2.93-3.08,4.94-3.08,2.99,0,4.45,2.01,4.45,4.51v10.14h-1.7v-9.37c0-2.67-1.32-3.79-3.28-3.79-2.27,0-4.43,1.78-4.43,4.6v8.56h-1.67v-14.31Z"/>
          <path class="cls-1" d="m472.6,166l1.15-.98c1.21,1.15,2.56,1.72,4.45,1.72s3.71-1.01,3.71-2.85-1.09-2.3-3.08-2.67l-1.58-.34c-2.53-.49-4.05-1.64-4.05-3.65,0-2.33,1.81-4.14,4.97-4.14,2.01,0,3.68.46,4.77,1.58l-1.12.95c-.92-.75-2.1-1.21-3.79-1.21-1.9,0-3.16,1.06-3.16,2.53s1.15,2.07,3.25,2.53l2.13.46c2.01.46,3.42,1.52,3.42,3.62,0,3.02-2.73,4.54-5.43,4.54-2.27,0-4.31-.57-5.63-2.1Z"/>
          <path class="cls-1" d="m486.37,162.38v-3.33c0-3.71,2.27-5.92,5.72-5.92s5.46,1.9,5.46,4.74v.43h-1.64v-.57c0-1.47-1.09-3.19-3.79-3.19s-3.99,1.9-3.99,4.4v3.48c0,2.5,1.18,4.28,4.02,4.28s3.76-1.7,3.76-3.19v-.49h1.64v.37c0,2.85-2.04,4.74-5.43,4.74-3.56,0-5.75-2.07-5.75-5.75Z"/>
          <path class="cls-1" d="m500.79,147.26h1.67v2.93h-1.67v-2.93Zm0,6.18h1.67v14.31h-1.67v-14.31Z"/>
          <path class="cls-1" d="m506.05,162.35v-3.1c0-3.94,2.56-6.12,5.98-6.12,3.19,0,5.52,1.95,5.52,5.63v2.1h-9.74v1.7c0,2.53,1.61,4.14,4.37,4.14,1.84,0,3.05-.89,3.82-1.84l1.26.8c-1.32,1.9-3.31,2.47-5.2,2.47-3.51,0-6.01-1.84-6.01-5.78Zm9.83-2.7v-.98c0-2.24-1.24-4.14-3.99-4.14-2.62,0-4.08,2.04-4.08,4.34v.78h8.08Z"/>
          <path class="cls-1" d="m521.08,153.44h1.61v2.73h.06c1.01-2.04,2.93-3.08,4.94-3.08,2.99,0,4.45,2.01,4.45,4.51v10.14h-1.7v-9.37c0-2.67-1.32-3.79-3.28-3.79-2.27,0-4.43,1.78-4.43,4.6v8.56h-1.67v-14.31Z"/>
          <path class="cls-1" d="m535.63,163.24v-4.71c0-3.85,2.62-5.43,5.32-5.43,1.84,0,3.74,1.06,4.34,2.93h.06v-8.74h1.7v20.46h-1.64v-2.82h-.06c-1.03,2.3-3.08,3.19-4.66,3.19-3.05,0-5.06-1.9-5.06-4.89Zm9.74-1.38v-2.82c0-2.76-1.95-4.51-4.22-4.51-1.84,0-3.82,1.18-3.82,3.76v4.83c0,1.98,1.44,3.53,3.85,3.53,2.01,0,4.2-1.81,4.2-4.8Z"/>
          <path class="cls-1" d="m550.66,162.35v-3.1c0-3.94,2.56-6.12,5.98-6.12,3.19,0,5.52,1.95,5.52,5.63v2.1h-9.74v1.7c0,2.53,1.61,4.14,4.37,4.14,1.84,0,3.05-.89,3.82-1.84l1.26.8c-1.32,1.9-3.31,2.47-5.2,2.47-3.51,0-6.01-1.84-6.01-5.78Zm9.83-2.7v-.98c0-2.24-1.24-4.14-3.99-4.14-2.62,0-4.08,2.04-4.08,4.34v.78h8.08Z"/>
        </g>
      </g>
    </g>
  </g>
</svg>