<?xml version="1.0" encoding="UTF-8"?>
<svg id="Capa_2" data-name="Capa 2" xmlns="http://www.w3.org/2000/svg" viewBox="0 0 325.6 100.36">
  <defs>
    <style>
      .cls-1 {
        fill: #e4d779;
      }
    </style>
  </defs>
  <g id="Capa_4" data-name="Capa 4">
    <g>
      <path class="cls-1" d="m43.33,79.35c-.1,0-.2,0-.31-.02l-9.38-1.37c-1.04-.15-1.8-1.03-1.74-2.04,1.12-19.15,19.18-21.33,19.36-21.35l.47,3.88-.23-1.94.24,1.94c-.58.07-13.74,1.75-15.57,15.93l5.91.86c1.96-3.62,6.82-8.12,15.27-6.02l-1.04,3.78c-8.22-2.05-10.76,4.29-11.02,5.02-.29.8-1.08,1.33-1.95,1.33Z"/>
      <path class="cls-1" d="m122.1,69.55s-.05,0-.08,0c-.13,0-3.35-.15-9.24-1.41-1.02-.22-1.67-1.21-1.45-2.21.21-.94,1.09-1.56,2.04-1.46-2.27-2.62-3.17-5.23-3.23-5.43-.32-.98.22-2.03,1.21-2.35.99-.32,2.05.21,2.38,1.18.1.28,2.3,6.53,8.8,8,.95.22,1.58,1.11,1.45,2.06-.13.93-.93,1.61-1.87,1.61Z"/>
      <path class="cls-1" d="m101.56,92.89c-.96,0-1.8-.64-2-1.53-1.9-8.2-7.61-14.73-15.29-14.73-.1,0-.21,0-.31,0-10.63.18-13.94,10.73-14.87,14.54-.21.86-1.01,1.48-1.94,1.51-1.93.05-3.88.05-5.77.04-1.17,0-2.34,0-3.51,0h-.02c-.59,0-1.14-.24-1.53-.65-.39-.42-.58-.98-.5-1.54.67-5.09.43-12.12-.76-18.57-.02-.1-.06-.29-.1-.44-.99-3.7-3.17-10.62-6.59-15.39-4.11-5.73-8.12-7.85-14.05-9.29-.92,4.48-2.61,10.16-5.65,14.95-5.08,8-11.85,13.85-21.32,18.4-.96.46-2.14.14-2.69-.74-.58-.93-1.19-1.85-1.77-2.73-.86-1.31-1.75-2.66-2.63-4.14-.28-.47-.34-1.03-.17-1.55s.56-.94,1.07-1.17c13.6-6.15,19.47-13.5,20.24-25.36,1.32-20.18,9.01-31.47,23.53-34.52,9.38-1.97,17.51.25,22.49,6.11,3.63-.18,7.35-.13,10.78,3.08,2.97,2.78,4.46,6.34,4.28,10.17,7.27,2.24,13.65,4.42,20.5,10.88,12.38,11.65,16.19,33.19,9.47,51.13-.27.72-.96,1.23-1.77,1.29-2.43.19-4.99.21-7.45.23-.56,0-1.11.01-1.66.02h-.03Zm-17.29-20.16c9.1,0,16.2,7.18,18.89,16.24.02,0,.04,0,.05,0,1.94-.02,3.93-.04,5.83-.13,5.59-16.21,2.07-35.48-8.93-45.84-6.03-5.68-11.58-7.67-18.35-9.77-1.64,5-5.81,9.59-11.13,12.08-5.25,2.46-10.75,2.48-15.5.05-1-.51-1.37-1.69-.83-2.64.54-.95,1.78-1.3,2.78-.79,3.54,1.81,7.71,1.77,11.74-.12,4.86-2.28,8.66-6.86,9.44-11.4.39-2.25.19-5.54-2.92-8.44-2.42-2.26-4.99-2.12-8.56-1.92h-.2c-.7.05-1.37-.26-1.78-.8-5.34-7.08-14.18-6.45-18.97-5.44-7.97,1.67-18.74,6.7-20.32,30.95-1.02,15.68-10.68,22.93-20.57,27.71.47.73.94,1.45,1.43,2.19.27.4.53.81.81,1.23,7.88-4.08,13.63-9.23,17.98-16.1,2.53-3.98,4.43-9.38,5.5-15.62.09-.53.41-1,.87-1.3s1.04-.41,1.59-.29c7.8,1.61,13.35,3.99,18.64,11.37,3.78,5.27,6.12,12.68,7.17,16.62.07.25.14.57.17.73,1.09,5.93,1.43,12.7,1.03,17.53.42,0,.84,0,1.27,0,1.35,0,2.73,0,4.1,0,2.72-8.92,9.5-15.93,18.39-16.09.13,0,.26,0,.38,0Z"/>
    </g>
    <g>
      <path class="cls-1" d="m136.3,4.88c0-3.27,1.7-4.3,4.3-4.3h11.23c6.17,0,11.14,3.04,11.14,10.2,0,5.86-4.07,10.2-11.19,10.2h-8.14v8.72c0,2.19-1.43,3.67-3.67,3.67s-3.67-1.48-3.67-3.67V4.88Zm7.34,10.47h6.85c2.95,0,5.15-1.79,5.15-4.56,0-3.22-2.28-4.56-5.91-4.56h-6.09v9.13Z"/>
      <path class="cls-1" d="m167.8,4.88c0-3.27,1.7-4.3,4.3-4.3h12.22c8.73,0,11.05,4.79,11.05,8.95,0,3.49-2.06,6.94-5.55,7.74v.09c3.76.54,4.43,3.27,4.43,6.53,0,3.71.98,5.1.98,6.62,0,1.7-1.75,2.86-3.45,2.86-4.03,0-4.34-3.89-4.34-5.19,0-5.64-1.03-7.92-5.06-7.92h-7.25v9.44c0,2.19-1.43,3.67-3.67,3.67s-3.67-1.48-3.67-3.67V4.88Zm7.34,10.02h7.34c2.77,0,5.55-.72,5.55-4.34s-2.1-4.34-5.32-4.34h-7.56v8.68Z"/>
      <path class="cls-1" d="m208.15,2.24c.63-1.66,1.79-2.24,3.58-2.24h1.75c1.66,0,3.13.4,3.94,2.68l8.86,24.65c.27.72.72,2.01.72,2.82,0,1.79-1.57,3.22-3.45,3.22-1.61,0-2.77-.58-3.31-2.01l-1.88-5.37h-11.81l-1.92,5.37c-.49,1.43-1.52,2.01-3.27,2.01-2.01,0-3.4-1.25-3.4-3.22,0-.81.45-2.1.72-2.82l9.49-25.1Zm4.43,5.73h-.09l-4.34,12.93h8.59l-4.16-12.93Z"/>
      <path class="cls-1" d="m230.79,4.88c0-3.27,1.7-4.3,4.3-4.3h8.95c8.01,0,15.35,3.49,15.35,16.11,0,10.2-5.68,16.11-15.48,16.11h-8.81c-2.59,0-4.3-1.03-4.3-4.3V4.88Zm7.34,22.01h6.17c5.86,0,7.74-5.24,7.74-10.2,0-6.35-2.42-10.2-7.79-10.2h-6.13v20.4Z"/>
      <path class="cls-1" d="m264.62,4.3c0-3.04,1.48-4.3,4.61-4.3,1.52,0,2.86.58,3.67,1.92l12.84,20.72h.09V3.53c0-2.37,1.34-3.53,3.53-3.53s3.53,1.16,3.53,3.53v25.28c0,2.91-1.25,4.56-4.34,4.56-2.33,0-3.09-.49-4.03-1.97l-12.75-20.13h-.09v18.57c0,2.37-1.34,3.53-3.53,3.53s-3.53-1.16-3.53-3.53V4.3Z"/>
      <path class="cls-1" d="m306.76,2.24c.63-1.66,1.79-2.24,3.58-2.24h1.75c1.66,0,3.13.4,3.94,2.68l8.86,24.65c.27.72.72,2.01.72,2.82,0,1.79-1.57,3.22-3.45,3.22-1.61,0-2.77-.58-3.31-2.01l-1.88-5.37h-11.81l-1.92,5.37c-.49,1.43-1.52,2.01-3.27,2.01-2.01,0-3.4-1.25-3.4-3.22,0-.81.45-2.1.72-2.82l9.49-25.1Zm4.43,5.73h-.09l-4.34,12.93h8.59l-4.16-12.93Z"/>
      <path class="cls-1" d="m140.16,68.35c1.17.28,2.17.47,3.01.56.81.01,1.68-.08,2.59-.27s1.7-.52,2.36-.99c.66-.47.99-1.1.99-1.88s-.25-1.43-.74-1.9c-.49-.47-1.11-.83-1.85-1.07-.74-.24-1.73-.49-2.96-.74-1.28-.26-2.4-.6-3.37-1.02s-1.76-1.03-2.39-1.82c-.62-.79-.94-1.81-.94-3.05,0-.12.01-.32.03-.6.07-1.07.42-2,1.04-2.8.63-.79,1.51-1.41,2.66-1.84,1.15-.43,2.54-.65,4.15-.65.82,0,1.78.11,2.86.33,1.08.22,2.24.58,3.48,1.07l-.28,2.46c-2.5-.87-4.57-1.31-6.21-1.31-1,0-1.85.13-2.53.39-.68.26-1.2.62-1.53,1.07-.34.45-.51.96-.51,1.54,0,.68.17,1.23.52,1.62.35.4.81.7,1.38.92.58.21,1.43.46,2.58.75l1.44.37.57.15c1.17.31,2.15.64,2.92.99s1.46.92,2.05,1.7.88,1.83.88,3.15c0,1.18-.33,2.24-.98,3.16-.65.93-1.6,1.65-2.86,2.18-1.26.53-2.78.79-4.55.79-1.26,0-2.49-.16-3.68-.47-1.2-.31-2.47-.73-3.83-1.24l.33-2.59c1.08.41,2.2.75,3.37,1.03Z"/>
      <path class="cls-1" d="m178.02,53.84h-10.12v6.38h8.45l-.27,2.55h-8.19v6.46h10.6v2.55h-13.75v-17.93l-.22-2.55h13.77l-.27,2.55Z"/>
      <path class="cls-1" d="m207.92,65.14c-.08,1.06-.37,2.08-.89,3.06-.51.98-1.39,1.81-2.63,2.49-1.25.68-2.91,1.03-5.01,1.03s-3.9-.41-5.18-1.22c-1.28-.81-2.19-2-2.74-3.57-.55-1.57-.82-3.56-.82-5.98,0-1.94.21-3.67.63-5.19.42-1.51,1.28-2.78,2.56-3.79,1.28-1.01,3.13-1.52,5.54-1.52,2.82,0,4.87.63,6.15,1.88,1.28,1.26,2.07,2.93,2.37,5.04h-3.23c-.34-1.58-.94-2.69-1.82-3.34-.87-.65-2.03-.97-3.47-.97-1.15,0-2.13.23-2.95.68-.81.45-1.45,1.25-1.92,2.41-.47,1.16-.7,2.75-.7,4.78s.21,3.62.64,4.83c.43,1.21,1.05,2.07,1.87,2.59.82.52,1.84.78,3.06.78,1.57,0,2.86-.38,3.88-1.15,1.02-.76,1.53-2.19,1.52-4.29v-.05h-3.57v-2.56h6.76c0,2.07-.02,3.42-.06,4.05Z"/>
      <path class="cls-1" d="m223.59,50.87v11.04c0,2.4.42,4.2,1.26,5.41.84,1.21,2.18,1.81,4,1.81s3.18-.59,4.02-1.77,1.25-3,1.25-5.45v-11.04h3.18v11.18c0,3.36-.72,5.82-2.15,7.36-1.43,1.54-3.53,2.31-6.29,2.31s-4.8-.75-6.26-2.25c-1.45-1.5-2.18-4-2.18-7.5v-8.56l-.24-2.55h3.39Z"/>
      <path class="cls-1" d="m249.67,53.65l-.21-2.55h7.35c2.52,0,4.46.47,5.81,1.4s2.03,2.52,2.03,4.76c0,1.87-.46,3.31-1.39,4.34-.93,1.03-2.25,1.68-3.98,1.97.69,1.4,1.28,2.49,1.76,3.28s.99,1.41,1.53,1.86c.54.45,1.14.68,1.8.68.23,0,.5-.04.8-.12.31-.08.56-.17.76-.28l.86,1.71c-.5.38-1.02.68-1.59.92-.56.23-1.1.35-1.61.35-1.12,0-2.05-.26-2.8-.78-.74-.52-1.37-1.21-1.87-2.05-.5-.85-1.13-2.1-1.88-3.74l-.76-1.64h-3.47v7.83h-3.16v-17.93Zm6.27,7.56c1.25,0,2.27-.09,3.05-.26.78-.17,1.4-.52,1.85-1.05.45-.53.67-1.3.67-2.34s-.22-1.86-.67-2.43c-.45-.57-1.07-.96-1.87-1.17-.8-.21-1.81-.31-3.03-.31h-3.11v7.56h3.11Z"/>
      <path class="cls-1" d="m291.06,51.54c1.28.81,2.19,2.01,2.74,3.58.55,1.57.82,3.57.82,5.98,0,1.95-.21,3.69-.63,5.19-.42,1.51-1.28,2.77-2.56,3.78-1.28,1.01-3.14,1.52-5.56,1.52-2.16,0-3.88-.41-5.16-1.22s-2.19-2.01-2.74-3.58c-.55-1.57-.82-3.56-.82-5.98,0-1.94.21-3.67.63-5.19.42-1.51,1.27-2.78,2.56-3.79,1.28-1.01,3.13-1.52,5.54-1.52,2.17,0,3.9.41,5.18,1.22Zm-10.07,14.09c.42,1.2,1.04,2.06,1.85,2.58s1.82.78,3.04.78c1.74,0,3.09-.6,4.06-1.8.97-1.2,1.46-3.23,1.46-6.09,0-2.01-.21-3.62-.63-4.82-.42-1.2-1.04-2.06-1.85-2.58s-1.82-.78-3.04-.78c-1.74,0-3.09.6-4.06,1.79-.97,1.2-1.46,3.22-1.46,6.08,0,2.02.21,3.64.63,4.84Z"/>
      <path class="cls-1" d="m310.47,68.35c1.17.28,2.17.47,3.01.56.81.01,1.68-.08,2.59-.27s1.7-.52,2.36-.99c.66-.47.99-1.1.99-1.88s-.25-1.43-.74-1.9c-.49-.47-1.11-.83-1.85-1.07-.74-.24-1.73-.49-2.96-.74-1.28-.26-2.4-.6-3.37-1.02s-1.76-1.03-2.39-1.82c-.62-.79-.94-1.81-.94-3.05,0-.12.01-.32.03-.6.07-1.07.42-2,1.04-2.8.63-.79,1.51-1.41,2.66-1.84,1.15-.43,2.54-.65,4.15-.65.82,0,1.78.11,2.86.33,1.08.22,2.24.58,3.48,1.07l-.28,2.46c-2.5-.87-4.57-1.31-6.21-1.31-1,0-1.85.13-2.53.39-.68.26-1.2.62-1.53,1.07-.34.45-.51.96-.51,1.54,0,.68.17,1.23.52,1.62.35.4.81.7,1.38.92.58.21,1.43.46,2.58.75l1.44.37.57.15c1.17.31,2.15.64,2.92.99s1.46.92,2.05,1.7c.59.78.88,1.83.88,3.15,0,1.18-.33,2.24-.98,3.16-.65.93-1.6,1.65-2.86,2.18-1.26.53-2.78.79-4.55.79-1.26,0-2.49-.16-3.68-.47-1.2-.31-2.47-.73-3.83-1.24l.33-2.59c1.08.41,2.2.75,3.37,1.03Z"/>
      <g>
        <path class="cls-1" d="m136.71,85.27h4.06c2.31,0,3.76,1.43,3.76,3.51s-1.45,3.58-3.99,3.58h-2.78v4.78h-1.05v-11.86Zm3.56,6.19c1.98,0,3.21-.88,3.21-2.68,0-1.6-1.16-2.61-2.83-2.61h-2.9v5.29h2.51Z"/>
        <path class="cls-1" d="m146.48,88.85h.95v1.76h.03c.73-1.48,1.96-1.88,3.08-1.88.2,0,.42.02.58.05v.92c-.28-.05-.57-.05-.77-.05-1.6,0-2.85,1-2.9,2.88v4.61h-.98v-8.29Z"/>
        <path class="cls-1" d="m152.2,94.17v-2.23c0-2.16,1.46-3.28,3.36-3.28,2.05,0,3.36,1.16,3.36,3.26v2.15c0,2.15-1.41,3.28-3.33,3.28-2.03,0-3.39-1.08-3.39-3.18Zm5.74-.08v-2.25c0-1.35-.75-2.35-2.38-2.35s-2.38.93-2.38,2.41v2.23c0,1.41.78,2.38,2.41,2.38s2.35-.85,2.35-2.43Z"/>
        <path class="cls-1" d="m161.67,95.49v-5.82h-1.55v-.8h1.55v-2.61h.98v2.61h2.46v.8h-2.46v5.56c0,.9.45,1.18,1.3,1.18.43,0,.87-.08,1.26-.18v.85c-.53.17-1.2.22-1.55.22-1.03,0-2-.4-2-1.8Z"/>
        <path class="cls-1" d="m166.48,94.01v-1.8c0-2.28,1.48-3.54,3.46-3.54,1.85,0,3.19,1.13,3.19,3.26v1.21h-5.64v.98c0,1.46.93,2.4,2.53,2.4,1.06,0,1.76-.52,2.21-1.06l.73.47c-.77,1.1-1.91,1.43-3.01,1.43-2.03,0-3.48-1.06-3.48-3.34Zm5.69-1.56v-.57c0-1.3-.72-2.4-2.31-2.4-1.51,0-2.36,1.18-2.36,2.51v.45h4.68Z"/>
        <path class="cls-1" d="m174.77,94.02v-1.93c0-2.15,1.31-3.43,3.31-3.43s3.16,1.1,3.16,2.75v.25h-.95v-.33c0-.85-.63-1.85-2.2-1.85s-2.31,1.1-2.31,2.55v2.01c0,1.45.68,2.48,2.33,2.48s2.18-.98,2.18-1.85v-.28h.95v.22c0,1.65-1.18,2.75-3.14,2.75-2.06,0-3.33-1.2-3.33-3.33Z"/>
        <path class="cls-1" d="m182.7,94.02v-1.93c0-2.15,1.31-3.43,3.31-3.43s3.16,1.1,3.16,2.75v.25h-.95v-.33c0-.85-.63-1.85-2.2-1.85s-2.31,1.1-2.31,2.55v2.01c0,1.45.68,2.48,2.33,2.48s2.18-.98,2.18-1.85v-.28h.95v.22c0,1.65-1.18,2.75-3.14,2.75-2.06,0-3.33-1.2-3.33-3.33Z"/>
        <path class="cls-1" d="m191.06,85.27h.97v1.7h-.97v-1.7Zm0,3.58h.97v8.29h-.97v-8.29Z"/>
        <path class="cls-1" d="m194.12,94.17v-2.23c0-2.16,1.46-3.28,3.36-3.28,2.05,0,3.36,1.16,3.36,3.26v2.15c0,2.15-1.41,3.28-3.33,3.28-2.03,0-3.39-1.08-3.39-3.18Zm5.74-.08v-2.25c0-1.35-.75-2.35-2.38-2.35s-2.38.93-2.38,2.41v2.23c0,1.41.78,2.38,2.41,2.38s2.35-.85,2.35-2.43Zm-1.31-9.15h1.15l-1.98,2.6h-.82l1.65-2.6Z"/>
        <path class="cls-1" d="m202.94,88.85h.93v1.58h.03c.58-1.18,1.7-1.78,2.86-1.78,1.73,0,2.58,1.16,2.58,2.61v5.87h-.98v-5.42c0-1.55-.77-2.2-1.9-2.2-1.31,0-2.56,1.03-2.56,2.66v4.96h-.97v-8.29Z"/>
        <path class="cls-1" d="m220.96,95.6h-.03c-.63,1.28-1.78,1.75-2.68,1.75-1.76,0-2.93-1.1-2.93-2.83v-2.73c0-2.23,1.51-3.15,3.08-3.15,1.06,0,2.18.62,2.53,1.7h.03v-1.5h.97v11.51h-.97v-4.76Zm0-1.88v-1.63c0-1.6-1.13-2.61-2.45-2.61-1.06,0-2.21.68-2.21,2.18v2.8c0,1.15.83,2.05,2.23,2.05,1.16,0,2.43-1.05,2.43-2.78Z"/>
        <path class="cls-1" d="m224.34,94.72v-5.87h.98v5.42c0,1.55.77,2.2,1.91,2.2,1.3,0,2.55-1.03,2.55-2.66v-4.96h.97v8.29h-.93v-1.58h-.03c-.58,1.2-1.7,1.78-2.86,1.78-1.73,0-2.58-1.16-2.58-2.61Z"/>
        <path class="cls-1" d="m232.79,94.01v-1.8c0-2.28,1.48-3.54,3.46-3.54,1.85,0,3.19,1.13,3.19,3.26v1.21h-5.64v.98c0,1.46.93,2.4,2.53,2.4,1.06,0,1.76-.52,2.21-1.06l.73.47c-.77,1.1-1.91,1.43-3.01,1.43-2.03,0-3.48-1.06-3.48-3.34Zm5.69-1.56v-.57c0-1.3-.72-2.4-2.31-2.4-1.51,0-2.36,1.18-2.36,2.51v.45h4.68Z"/>
        <path class="cls-1" d="m246.11,95.49v-5.82h-1.55v-.8h1.55v-2.61h.98v2.61h2.46v.8h-2.46v5.56c0,.9.45,1.18,1.3,1.18.43,0,.87-.08,1.26-.18v.85c-.53.17-1.2.22-1.55.22-1.03,0-2-.4-2-1.8Z"/>
        <path class="cls-1" d="m251.28,88.85h.95v1.76h.03c.73-1.48,1.96-1.88,3.08-1.88.2,0,.42.02.58.05v.92c-.28-.05-.57-.05-.77-.05-1.6,0-2.85,1-2.9,2.88v4.61h-.98v-8.29Z"/>
        <path class="cls-1" d="m256.71,94.95c0-1.86,1.71-2.48,3.08-2.48h2.43v-1.28c0-1.3-.87-1.75-2.11-1.75-1.03,0-2.13.37-2.13,1.45v.27h-.9v-.25c0-1.65,1.53-2.26,3.08-2.26s3.05.58,3.05,2.38v4.03c0,.48.07,1.71.12,2.08h-.96c-.03-.28-.07-1.06-.07-1.31h-.03c-.68,1.28-1.8,1.5-2.81,1.5-1.5,0-2.73-.83-2.73-2.36Zm5.51-.82v-.93h-2.23c-1.13,0-2.3.28-2.3,1.7,0,1.11.97,1.65,2.01,1.65,1.66,0,2.51-.98,2.51-2.41Z"/>
        <path class="cls-1" d="m265.54,88.85h.93v1.58h.03c.58-1.18,1.7-1.78,2.86-1.78,1.73,0,2.58,1.16,2.58,2.61v5.87h-.98v-5.42c0-1.55-.77-2.2-1.9-2.2-1.31,0-2.56,1.03-2.56,2.66v4.96h-.97v-8.29Z"/>
        <path class="cls-1" d="m273.75,96.12l.67-.57c.7.67,1.48,1,2.58,1s2.15-.58,2.15-1.65-.63-1.33-1.78-1.55l-.92-.2c-1.46-.28-2.35-.95-2.35-2.11,0-1.35,1.05-2.4,2.88-2.4,1.17,0,2.13.27,2.76.92l-.65.55c-.53-.43-1.21-.7-2.2-.7-1.1,0-1.83.62-1.83,1.46s.67,1.2,1.88,1.46l1.23.27c1.16.27,1.98.88,1.98,2.1,0,1.75-1.58,2.63-3.15,2.63-1.31,0-2.5-.33-3.26-1.21Z"/>
        <path class="cls-1" d="m281.72,94.02v-1.93c0-2.15,1.31-3.43,3.31-3.43s3.16,1.1,3.16,2.75v.25h-.95v-.33c0-.85-.63-1.85-2.2-1.85s-2.31,1.1-2.31,2.55v2.01c0,1.45.68,2.48,2.33,2.48s2.18-.98,2.18-1.85v-.28h.95v.22c0,1.65-1.18,2.75-3.14,2.75-2.06,0-3.33-1.2-3.33-3.33Z"/>
        <path class="cls-1" d="m290.07,85.27h.97v1.7h-.97v-1.7Zm0,3.58h.97v8.29h-.97v-8.29Z"/>
        <path class="cls-1" d="m293.12,94.01v-1.8c0-2.28,1.48-3.54,3.46-3.54,1.85,0,3.19,1.13,3.19,3.26v1.21h-5.64v.98c0,1.46.93,2.4,2.53,2.4,1.06,0,1.76-.52,2.21-1.06l.73.47c-.77,1.1-1.91,1.43-3.01,1.43-2.03,0-3.48-1.06-3.48-3.34Zm5.69-1.56v-.57c0-1.3-.72-2.4-2.31-2.4-1.51,0-2.36,1.18-2.36,2.51v.45h4.68Z"/>
        <path class="cls-1" d="m301.82,88.85h.93v1.58h.03c.58-1.18,1.7-1.78,2.86-1.78,1.73,0,2.58,1.16,2.58,2.61v5.87h-.98v-5.42c0-1.55-.77-2.2-1.9-2.2-1.31,0-2.56,1.03-2.56,2.66v4.96h-.97v-8.29Z"/>
        <path class="cls-1" d="m310.24,94.52v-2.73c0-2.23,1.51-3.15,3.08-3.15,1.06,0,2.16.62,2.51,1.7h.03v-5.06h.98v11.85h-.95v-1.63h-.03c-.6,1.33-1.78,1.85-2.7,1.85-1.76,0-2.93-1.1-2.93-2.83Zm5.64-.8v-1.63c0-1.6-1.13-2.61-2.45-2.61-1.06,0-2.21.68-2.21,2.18v2.8c0,1.15.83,2.05,2.23,2.05,1.16,0,2.43-1.05,2.43-2.78Z"/>
        <path class="cls-1" d="m318.94,94.01v-1.8c0-2.28,1.48-3.54,3.46-3.54,1.85,0,3.19,1.13,3.19,3.26v1.21h-5.64v.98c0,1.46.93,2.4,2.53,2.4,1.06,0,1.76-.52,2.21-1.06l.73.47c-.77,1.1-1.91,1.43-3.01,1.43-2.03,0-3.48-1.06-3.48-3.34Zm5.69-1.56v-.57c0-1.3-.72-2.4-2.31-2.4-1.51,0-2.36,1.18-2.36,2.51v.45h4.68Z"/>
      </g>
    </g>
  </g>
</svg>